<svg xmlns="http://www.w3.org/2000/svg" xmlns:xlink="http://www.w3.org/1999/xlink" viewBox="0 0 99.47 134.44"><defs><style>.cls-1{fill:none;}.cls-2{isolation:isolate;}.cls-3,.cls-6{opacity:0.3;}.cls-4{fill:#fea504;}.cls-5{fill:#fff;}.cls-7{fill:#ff9cd1;}.cls-8{opacity:0.09;}.cls-9{opacity:0.3;}.cls-10{fill:#0071bc;}.cls-11{fill:#650000;}.cls-12{opacity:0.7;}.cls-13{clip-path:url(#clip-path);}.cls-14{fill:url(#linear-gradient);}.cls-15,.cls-16,.cls-18,.cls-19,.cls-21,.cls-22,.cls-24,.cls-25,.cls-27,.cls-28,.cls-30,.cls-31,.cls-34,.cls-35,.cls-37,.cls-38,.cls-40,.cls-41,.cls-42{mix-blend-mode:multiply;}.cls-15{fill:url(#linear-gradient-2);}.cls-16,.cls-19,.cls-22,.cls-25,.cls-28,.cls-31,.cls-35,.cls-38,.cls-41,.cls-42{opacity:0.5;}.cls-16{fill:url(#linear-gradient-3);}.cls-17{fill:url(#linear-gradient-4);}.cls-18{fill:url(#linear-gradient-5);}.cls-19{fill:url(#linear-gradient-6);}.cls-20{fill:url(#linear-gradient-7);}.cls-21{fill:url(#linear-gradient-8);}.cls-22{fill:url(#linear-gradient-9);}.cls-23{fill:url(#linear-gradient-10);}.cls-24{fill:url(#linear-gradient-11);}.cls-25{fill:url(#linear-gradient-12);}.cls-26{fill:url(#linear-gradient-13);}.cls-27{fill:url(#linear-gradient-14);}.cls-28{fill:url(#linear-gradient-15);}.cls-29{fill:url(#linear-gradient-16);}.cls-30{fill:url(#linear-gradient-17);}.cls-31{fill:url(#linear-gradient-18);}.cls-32{fill:url(#linear-gradient-19);}.cls-33{fill:url(#linear-gradient-20);}.cls-34{fill:url(#linear-gradient-21);}.cls-35{fill:url(#linear-gradient-22);}.cls-36{fill:url(#linear-gradient-23);}.cls-37{fill:url(#linear-gradient-24);}.cls-38{fill:url(#linear-gradient-25);}.cls-39{fill:url(#linear-gradient-26);}.cls-40{fill:url(#linear-gradient-27);}.cls-41{fill:url(#linear-gradient-28);}.cls-42{fill:url(#linear-gradient-29);}</style><clipPath id="clip-path" transform="translate(-49.32 -32.6)"><ellipse class="cls-1" cx="93.22" cy="148.41" rx="12" ry="4.2"/></clipPath><linearGradient id="linear-gradient" x1="160.36" y1="112.8" x2="164.14" y2="117.14" gradientTransform="translate(30.87 -41.99) rotate(37.68)" gradientUnits="userSpaceOnUse"><stop offset="0" stop-color="#efac75"/><stop offset="0.1" stop-color="#e89d65"/><stop offset="0.35" stop-color="#d97d44"/><stop offset="0.58" stop-color="#cf662d"/><stop offset="0.8" stop-color="#c8591f"/><stop offset="0.99" stop-color="#c6541a"/></linearGradient><linearGradient id="linear-gradient-2" x1="159.61" y1="115.24" x2="164.92" y2="115.24" gradientTransform="translate(30.87 -41.99) rotate(37.68)" gradientUnits="userSpaceOnUse"><stop offset="0" stop-color="#fff"/><stop offset="0.11" stop-color="#fbf2ee"/><stop offset="0.32" stop-color="#f0d1c2"/><stop offset="0.62" stop-color="#de9c7b"/><stop offset="0.99" stop-color="#c6541a"/></linearGradient><linearGradient id="linear-gradient-3" x1="162.32" y1="115.24" x2="164.92" y2="115.24" gradientTransform="translate(30.87 -41.99) rotate(37.68)" gradientUnits="userSpaceOnUse"><stop offset="0.01" stop-color="#c6541a"/><stop offset="0.38" stop-color="#de9c7b"/><stop offset="0.68" stop-color="#f0d1c2"/><stop offset="0.89" stop-color="#fbf2ee"/><stop offset="1" stop-color="#fff"/></linearGradient><linearGradient id="linear-gradient-4" x1="69.72" y1="159.18" x2="72.93" y2="162.87" gradientTransform="matrix(0.99, -0.16, 0.16, 0.99, -11.91, 2.95)" xlink:href="#linear-gradient"/><linearGradient id="linear-gradient-5" x1="69.03" y1="161.11" x2="73.67" y2="161.11" gradientTransform="matrix(0.99, -0.16, 0.16, 0.99, -11.91, 2.95)" xlink:href="#linear-gradient-2"/><linearGradient id="linear-gradient-6" x1="71.54" y1="161.09" x2="73.67" y2="161.09" gradientTransform="matrix(0.99, -0.16, 0.16, 0.99, -11.91, 2.95)" xlink:href="#linear-gradient-3"/><linearGradient id="linear-gradient-7" x1="137.65" y1="151.65" x2="141.27" y2="155.81" gradientTransform="translate(17.28 -46.12) rotate(21)" xlink:href="#linear-gradient"/><linearGradient id="linear-gradient-8" x1="136.99" y1="153.95" x2="141.96" y2="153.95" gradientTransform="translate(17.28 -46.12) rotate(21)" xlink:href="#linear-gradient-2"/><linearGradient id="linear-gradient-9" x1="139.55" y1="153.95" x2="141.96" y2="153.95" gradientTransform="translate(17.28 -46.12) rotate(21)" xlink:href="#linear-gradient-3"/><linearGradient id="linear-gradient-10" x1="144.09" y1="150.85" x2="147.71" y2="155.01" gradientTransform="translate(17.28 -46.12) rotate(21)" gradientUnits="userSpaceOnUse"><stop offset="0" stop-color="#d37026"/><stop offset="0.2" stop-color="#cf6722"/><stop offset="0.62" stop-color="#c8591c"/><stop offset="0.99" stop-color="#c6541a"/></linearGradient><linearGradient id="linear-gradient-11" x1="143.44" y1="153.15" x2="148.41" y2="153.15" gradientTransform="translate(17.28 -46.12) rotate(21)" xlink:href="#linear-gradient-2"/><linearGradient id="linear-gradient-12" x1="146" y1="153.15" x2="148.41" y2="153.15" gradientTransform="translate(17.28 -46.12) rotate(21)" xlink:href="#linear-gradient-3"/><linearGradient id="linear-gradient-13" x1="144.33" y1="154.11" x2="147.94" y2="158.27" xlink:href="#linear-gradient-10"/><linearGradient id="linear-gradient-14" x1="143.67" y1="156.41" x2="148.64" y2="156.41" gradientTransform="translate(17.28 -46.12) rotate(21)" xlink:href="#linear-gradient-2"/><linearGradient id="linear-gradient-15" x1="146.23" y1="156.41" x2="148.64" y2="156.41" gradientTransform="translate(17.28 -46.12) rotate(21)" xlink:href="#linear-gradient-3"/><linearGradient id="linear-gradient-16" x1="140.61" y1="150.98" x2="144.23" y2="155.14" xlink:href="#linear-gradient-10"/><linearGradient id="linear-gradient-17" x1="139.96" y1="153.29" x2="144.92" y2="153.29" gradientTransform="translate(17.28 -46.12) rotate(21)" xlink:href="#linear-gradient-2"/><linearGradient id="linear-gradient-18" x1="142.51" y1="153.29" x2="144.92" y2="153.29" gradientTransform="translate(17.28 -46.12) rotate(21)" xlink:href="#linear-gradient-3"/><linearGradient id="linear-gradient-19" x1="98.96" y1="-170.02" x2="98.96" y2="-175.17" gradientTransform="translate(127.49 -43.63) rotate(161.91)" xlink:href="#linear-gradient"/><linearGradient id="linear-gradient-20" x1="88.62" y1="149.41" x2="91.95" y2="153.24" gradientTransform="matrix(1, 0, 0, 1, 0, 0)" xlink:href="#linear-gradient"/><linearGradient id="linear-gradient-21" x1="87.97" y1="151.44" x2="92.65" y2="151.44" gradientTransform="matrix(1, 0, 0, 1, 0, 0)" xlink:href="#linear-gradient-2"/><linearGradient id="linear-gradient-22" x1="90.46" y1="151.44" x2="92.65" y2="151.44" gradientTransform="matrix(1, 0, 0, 1, 0, 0)" xlink:href="#linear-gradient-3"/><linearGradient id="linear-gradient-23" x1="140.13" y1="155.32" x2="143.75" y2="159.48" gradientTransform="translate(17.28 -46.12) rotate(21)" xlink:href="#linear-gradient"/><linearGradient id="linear-gradient-24" x1="139.47" y1="157.62" x2="144.44" y2="157.62" gradientTransform="translate(17.28 -46.12) rotate(21)" xlink:href="#linear-gradient-2"/><linearGradient id="linear-gradient-25" x1="142.03" y1="157.62" x2="144.44" y2="157.62" gradientTransform="translate(17.28 -46.12) rotate(21)" xlink:href="#linear-gradient-3"/><linearGradient id="linear-gradient-26" x1="90.37" y1="158.98" x2="93.75" y2="162.85" gradientTransform="translate(-7.61 0.83) rotate(-6.4)" xlink:href="#linear-gradient"/><linearGradient id="linear-gradient-27" x1="89.67" y1="161.01" x2="94.49" y2="161.01" gradientTransform="translate(-7.61 0.83) rotate(-6.4)" xlink:href="#linear-gradient-2"/><linearGradient id="linear-gradient-28" x1="92.27" y1="161" x2="94.49" y2="161" gradientTransform="translate(-7.61 0.83) rotate(-6.4)" xlink:href="#linear-gradient-3"/><linearGradient id="linear-gradient-29" x1="81.64" y1="145.72" x2="98.26" y2="152.26" gradientUnits="userSpaceOnUse"><stop offset="0" stop-color="#fff"/><stop offset="0.12" stop-color="#fdfbfb"/><stop offset="0.24" stop-color="#f8eeef"/><stop offset="0.37" stop-color="#eed9da"/><stop offset="0.5" stop-color="#e1bbbe"/><stop offset="0.63" stop-color="#d19599"/><stop offset="0.77" stop-color="#bc666c"/><stop offset="0.9" stop-color="#a52f37"/><stop offset="1" stop-color="#90000a"/></linearGradient></defs><g class="cls-2"><g id="Camada_1" data-name="Camada 1"><g class="cls-3"><path d="M135.57,148.15c0-8.34-18.81-15.11-42-15.11s-42,6.77-42,15.11c0,4.29,5,8.17,13,10.91,3.8,4.62,15.35,8,29,8s25.22-3.36,29-8C130.59,156.32,135.57,152.44,135.57,148.15Z" transform="translate(-49.32 -32.6)"/></g><path class="cls-4" d="M125.57,125c-.17,3.34-.33,6.67-.5,10a26.58,26.58,0,0,0,8-3,31.24,31.24,0,0,0,6.36-5c7.14-7.5,8.48-20.25,8.64-22a10.93,10.93,0,0,1-15-1,36.32,36.32,0,0,1-1,9,35.35,35.35,0,0,1-2,6Z" transform="translate(-49.32 -32.6)"/><path class="cls-5" d="M133.07,104a10.35,10.35,0,0,0,15.5,1c-.13-8.86-3.18-15.89-8-17.5-.5-.16-4-1.32-6.5.5-2,1.43-2.34,3.94-2.5,5-.23,1.5,0,2.28,1,8C132.79,102.33,133,103.38,133.07,104Z" transform="translate(-49.32 -32.6)"/><path d="M126.1,126.07a28.91,28.91,0,0,0,7.7-18.74,26.36,26.36,0,0,0-.68-6.8,20.34,20.34,0,0,1-.77-5.75,10.1,10.1,0,0,1,1.1-4.71,5,5,0,0,1,5.2-2.22c5.57.73,7.66,7.13,8.39,11.94.88,5.73-.43,12.22-2.59,17.57a29.19,29.19,0,0,1-19.11,17.21.75.75,0,0,0,.4,1.45,30.58,30.58,0,0,0,18.79-15.26,38.08,38.08,0,0,0,4.19-19.31c-.36-5.21-2.25-12.18-7.48-14.44-2.88-1.24-6.64-1-8.64,1.65s-2.14,6.89-1.49,10a36.53,36.53,0,0,1,1.2,8.26,28,28,0,0,1-.95,6.7A26.89,26.89,0,0,1,125,125c-.65.71.41,1.78,1.06,1.06Z" transform="translate(-49.32 -32.6)"/><g class="cls-3"><path d="M147.57,96a12.3,12.3,0,0,0-3-6,11.67,11.67,0,0,0-5-3c.84,1.45,8.91,15.81,3,29-3.52,7.85-11.11,13.37-12,14a36.83,36.83,0,0,1-5,3l-1,3a33,33,0,0,0,10-5,34.64,34.64,0,0,0,11-14S150.09,106.64,147.57,96Z" transform="translate(-49.32 -32.6)"/></g><path class="cls-5" d="M73.07,109a24,24,0,0,0,4.5,13.5c1.29,1.76,6.45,8.79,15,9,10.63.27,16.59-10.23,17-11a22.06,22.06,0,0,0,2.5-12.5,40.56,40.56,0,0,1-39,1Z" transform="translate(-49.32 -32.6)"/><path class="cls-4" d="M66.07,117a14.54,14.54,0,0,0-4.62,5.18c-2.32,4.46-3,11.91,1.62,15.82,3.82,3.22,9.07,2.2,10,2a65.93,65.93,0,0,1-4.5-10.5,52.38,52.38,0,0,1-2-8C66.28,119.74,66.15,118.2,66.07,117Z" transform="translate(-49.32 -32.6)"/><path class="cls-5" d="M63.07,138c-.34.05-5,.76-7,5-.2.44-1.7,3.84,0,7,2.3,4.29,8.26,4,9,4a11.78,11.78,0,0,0,6-2,7,7,0,0,1-2-3c-.09-.27-1.07-3.35.5-5.5.75-1,1.5-1,2.5-2.5a7.81,7.81,0,0,0,1-2,9.16,9.16,0,0,1-4,1A9.66,9.66,0,0,1,63.07,138Z" transform="translate(-49.32 -32.6)"/><path class="cls-5" d="M57.57,145a11,11,0,0,1,5-8,18.55,18.55,0,0,1-1-8,19.13,19.13,0,0,1,5-11v-1c-.73.56-7.67,6-7,14a13.67,13.67,0,0,0,2,6c-.86.54-5,3.26-5.55,7.93-.12,1-.52,4.27,1.55,6.07a4.5,4.5,0,0,0,2,1A10.55,10.55,0,0,1,57.57,145Z" transform="translate(-49.32 -32.6)"/><path class="cls-6" d="M73.15,136.67a27.62,27.62,0,0,1,2.11,15,18.85,18.85,0,0,1-12.11,2c-2.14-.42-5.17-1-6.58-3.63a7.15,7.15,0,0,1-.36-5.27,15.92,15.92,0,0,0,7.47,3.38c2.53.53,6.31,1.1,8.48-1.26,2.35-2.55,1.13-6.76,1-7.22a8.83,8.83,0,0,1-6,0,8.65,8.65,0,0,1-3.47-2.42,4.94,4.94,0,0,0,6.47-5.58A26.2,26.2,0,0,1,73.15,136.67Z" transform="translate(-49.32 -32.6)"/><path class="cls-4" d="M119.15,117.16a14.45,14.45,0,0,1,4.62,5.18c2.32,4.46,3,11.91-1.62,15.82-3.82,3.22-9.07,2.2-10,2a64.12,64.12,0,0,0,4.5-10.5,52.38,52.38,0,0,0,2-8C118.94,119.86,119.08,118.32,119.15,117.16Z" transform="translate(-49.32 -32.6)"/><path class="cls-5" d="M123.07,137a11.22,11.22,0,0,1,6.08,6.12c.35.93,1.56,4.1,0,7-2.3,4.29-8.25,4-9,4a11.78,11.78,0,0,1-6-2,6.9,6.9,0,0,0,2-3c.09-.27,1.07-3.35-.5-5.5-.75-1-1.49-1-2.5-2.5a8.15,8.15,0,0,1-1-2,8.81,8.81,0,0,0,4,1A9.67,9.67,0,0,0,123.07,137Z" transform="translate(-49.32 -32.6)"/><path class="cls-5" d="M128.57,145.46a11,11,0,0,0-5-8,18.57,18.57,0,0,0,1-8,19.16,19.16,0,0,0-5-11v-1c.72.55,7.67,6,7,14a13.9,13.9,0,0,1-2,6c.85.54,5,3.25,5.54,7.93.13,1,.53,4.26-1.54,6.07a4.78,4.78,0,0,1-2,1A10.59,10.59,0,0,0,128.57,145.46Z" transform="translate(-49.32 -32.6)"/><path class="cls-6" d="M113.57,137a27.65,27.65,0,0,0-2.11,15c1.41.83,6.46,3.58,12.11,2,1.57-.44,4.43-1.25,6-4a8.17,8.17,0,0,0,.94-4.89,15.92,15.92,0,0,1-7.47,3.37c-2.53.53-6.31,1.11-8.48-1.26-2.35-2.55-1.13-6.76-1-7.22a8.76,8.76,0,0,0,6,0,8.65,8.65,0,0,0,3.47-2.42,4.94,4.94,0,0,1-6.47-5.58A26.2,26.2,0,0,0,113.57,137Z" transform="translate(-49.32 -32.6)"/><path class="cls-4" d="M73.57,107l-5-2a34.23,34.23,0,0,0-2.5,14.5,36.17,36.17,0,0,0,3.5,13.5c2.26,5.26,3.58,8.35,7,10a12.17,12.17,0,0,0,8.61.46A13.52,13.52,0,0,0,92.57,138v-6a24.42,24.42,0,0,1-10-5C74,119.83,73.6,109,73.57,107Z" transform="translate(-49.32 -32.6)"/><path class="cls-5" d="M72.57,140a8.13,8.13,0,0,0-4,5,8,8,0,0,0,1,6c3.22,4.72,11.62,3.25,13,3a20.21,20.21,0,0,0,10-5V137a19.52,19.52,0,0,1-5,4c-2.13,1.2-6.59,3.69-11,2A9.41,9.41,0,0,1,72.57,140Z" transform="translate(-49.32 -32.6)"/><path class="cls-4" d="M112.07,107l5-2a34.23,34.23,0,0,1,2.5,14.5,36.17,36.17,0,0,1-3.5,13.5c-2.25,5.26-3.58,8.35-7,10a12.17,12.17,0,0,1-8.61.46A13.61,13.61,0,0,1,93.07,138v-6a24.36,24.36,0,0,0,10-5C111.67,119.83,112,109,112.07,107Z" transform="translate(-49.32 -32.6)"/><path class="cls-5" d="M113.07,140a8.13,8.13,0,0,1,4,5,8,8,0,0,1-1,6c-3.22,4.72-11.62,3.25-13,3a20.26,20.26,0,0,1-10-5V137a19.52,19.52,0,0,0,5,4c2.13,1.2,6.59,3.69,11,2A9.41,9.41,0,0,0,113.07,140Z" transform="translate(-49.32 -32.6)"/><path d="M67.85,105.35a35,35,0,0,0,.21,24c1,2.77,2.41,5.42,3.49,8.18a14.52,14.52,0,0,0,1.83,3.83,8.75,8.75,0,0,0,4.47,2.86,9.74,9.74,0,0,0,9.25-2.14c.72-.64-.34-1.7-1.06-1.06a8.17,8.17,0,0,1-7.64,1.79,7,7,0,0,1-4.11-2.75,25.14,25.14,0,0,1-1.82-4.27c-.9-2.28-2.07-4.46-2.93-6.75a34.32,34.32,0,0,1-2.1-9,33.35,33.35,0,0,1,1.86-14.31c.32-.91-1.13-1.3-1.45-.39Z" transform="translate(-49.32 -32.6)"/><path d="M71.85,138.74c.37,1.48-.35,2.17-1.42,3A5.49,5.49,0,0,0,69,143.28a7.9,7.9,0,0,0-1,4.62c.35,4,3.47,6,7,7a19.76,19.76,0,0,0,9.27,0,17.56,17.56,0,0,0,5-1.87,15.35,15.35,0,0,0,2.35-1.66c.57-.48,1.38-1.06,1.55-1.82a11.28,11.28,0,0,0,0-2.25V131.54a.76.76,0,0,0-.55-.72A23.49,23.49,0,0,1,75.3,116.35c-.36-.89-1.81-.5-1.45.39a25,25,0,0,0,18.52,15.53l-.55-.73v13.75c0,1.15.11,2.36,0,3.5,0,.45,0,.46-.33.8a12.74,12.74,0,0,1-1.37,1.18,14.94,14.94,0,0,1-5,2.39,20.24,20.24,0,0,1-8,.63,13.47,13.47,0,0,1-5.4-2,5.32,5.32,0,0,1-2.21-4.54,5.24,5.24,0,0,1,2.17-4.57,3.79,3.79,0,0,0,1.61-4.31.75.75,0,0,0-1.45.39Z" transform="translate(-49.32 -32.6)"/><path d="M72.07,153a6.75,6.75,0,0,1,0-4,6.65,6.65,0,0,1,2-3,13.08,13.08,0,0,0,0,5,13,13,0,0,0,1,3Z" transform="translate(-49.32 -32.6)"/><path d="M72.43,152.94a6.29,6.29,0,0,1,1.91-6.63l-.63-.37a13.37,13.37,0,0,0,1,8.29l.42-.55-3-1c-.46-.15-.65.57-.2.73l3,1c.34.11.56-.28.43-.55a12.52,12.52,0,0,1-1-7.72.37.37,0,0,0-.62-.36,7,7,0,0,0-2.1,7.36C71.85,153.6,72.58,153.41,72.43,152.94Z" transform="translate(-49.32 -32.6)"/><path d="M79.07,154a6.75,6.75,0,0,1,0-4,6.65,6.65,0,0,1,2-3,15,15,0,0,0,0,3,14.5,14.5,0,0,0,1,4Z" transform="translate(-49.32 -32.6)"/><path d="M79.43,153.94a6.29,6.29,0,0,1,1.91-6.63L80.7,147a15.09,15.09,0,0,0,1,7.1l.36-.47h-3a.38.38,0,0,0,0,.75h3a.37.37,0,0,0,.36-.48,14.5,14.5,0,0,1-1-6.9c0-.35-.42-.45-.64-.26a7,7,0,0,0-2.1,7.36C78.85,154.6,79.58,154.41,79.43,153.94Z" transform="translate(-49.32 -32.6)"/><path d="M116.57,105.74a33.77,33.77,0,0,1,.06,22.45c-.68,2-1.69,3.81-2.48,5.74-1.26,3-1.92,6.7-5.13,8.29A8.25,8.25,0,0,1,99.83,141c-.72-.64-1.79.42-1.06,1.06a9.69,9.69,0,0,0,8,2.42,8.75,8.75,0,0,0,7-5.61c2.42-5.93,5.29-11.57,6-18A34.28,34.28,0,0,0,118,105.35c-.32-.91-1.77-.52-1.45.39Z" transform="translate(-49.32 -32.6)"/><path d="M112.57,138.35a3.68,3.68,0,0,0,1.21,4,5.44,5.44,0,0,1,2.43,3.41,6.16,6.16,0,0,1-.94,5c-1.16,1.48-3.35,2.3-5.11,2.76a18.48,18.48,0,0,1-8.4-.07A16.15,16.15,0,0,1,97,151.63a13.61,13.61,0,0,1-2.37-1.76,2.22,2.22,0,0,1-.64-.74,8.12,8.12,0,0,1,0-1.84V131.54l-.55.73A25,25,0,0,0,112,116.74c.36-.89-1.09-1.28-1.45-.39A23.49,23.49,0,0,1,93.1,130.82a.76.76,0,0,0-.55.72v15.75c0,.85-.26,2.05.22,2.78a9,9,0,0,0,2.32,2.07,16.3,16.3,0,0,0,5.06,2.42,21.59,21.59,0,0,0,8.79.7c3.52-.5,7.72-2.24,8.66-6a8.29,8.29,0,0,0-.46-5.42,5.33,5.33,0,0,0-1.43-1.9c-1.13-.93-2.12-1.44-1.69-3.18a.75.75,0,0,0-1.45-.39Z" transform="translate(-49.32 -32.6)"/><path d="M113.8,153a6.56,6.56,0,0,0-2-7,13.08,13.08,0,0,1,0,5,13,13,0,0,1-1,3Z" transform="translate(-49.32 -32.6)"/><path d="M114.16,153.14a7,7,0,0,0-2.1-7.36.38.38,0,0,0-.63.36,12.44,12.44,0,0,1-1,7.72c-.13.27.09.66.43.55l3-1c.45-.16.26-.88-.2-.73l-3,1,.42.55a13.44,13.44,0,0,0,1-8.29l-.63.37a6.27,6.27,0,0,1,1.9,6.63C113.29,153.41,114,153.6,114.16,153.14Z" transform="translate(-49.32 -32.6)"/><path d="M106.8,154a6.56,6.56,0,0,0-2-7,14.58,14.58,0,0,1-1,7Z" transform="translate(-49.32 -32.6)"/><path d="M107.16,154.14a7,7,0,0,0-2.1-7.36c-.22-.19-.67-.09-.64.26a14.39,14.39,0,0,1-1,6.9.39.39,0,0,0,.37.48h3a.38.38,0,0,0,0-.75h-3l.36.47a15.09,15.09,0,0,0,1-7.1l-.64.27a6.27,6.27,0,0,1,1.9,6.63C106.29,154.41,107,154.6,107.16,154.14Z" transform="translate(-49.32 -32.6)"/><path d="M119.25,117.58c3.33,2.94,6.09,7.39,6.17,12a10.54,10.54,0,0,1-1.53,6,8.91,8.91,0,0,1-6.77,3.86c-1,.08-1,1.58,0,1.5a10.61,10.61,0,0,0,7.33-3.61,11.56,11.56,0,0,0,2.47-7.34c.08-5.09-2.9-10.14-6.61-13.41-.72-.63-1.79.42-1.06,1.06Z" transform="translate(-49.32 -32.6)"/><path d="M123,138.27a9.06,9.06,0,0,1,6,5.9c.64,2,.75,4.45-.64,6.23-1.28,1.63-3.45,2.1-5.39,2.42a13.49,13.49,0,0,1-7.42-.92c-.88-.38-1.64.92-.76,1.29a15.09,15.09,0,0,0,7.19,1.26c2.35-.2,5-.73,6.8-2.33,3.58-3.16,2.34-9.15-.59-12.31a11.08,11.08,0,0,0-4.82-3c-.92-.28-1.32,1.16-.4,1.45Z" transform="translate(-49.32 -32.6)"/><path d="M125.67,146a8.11,8.11,0,0,1-.24,4,8,8,0,0,1-1.76,3l2.14-.81a5.27,5.27,0,0,0,.93-2.76A5.67,5.67,0,0,0,125.67,146Z" transform="translate(-49.32 -32.6)"/><path d="M125.31,146.15a7.74,7.74,0,0,1-1.91,6.63c-.23.25,0,.77.37.63l1.51-.58a3.16,3.16,0,0,0,.72-.28,1,1,0,0,0,.26-.32,5.45,5.45,0,0,0,.79-2.11,6,6,0,0,0-1-4.27c-.28-.39-.94,0-.66.39a5,5,0,0,1,.14,5.8l.23-.18-2.14.82.37.63a8.53,8.53,0,0,0,2.1-7.37C126,145.47,125.22,145.67,125.31,146.15Z" transform="translate(-49.32 -32.6)"/><path d="M120.72,146.94a5.53,5.53,0,0,1-.1,4.06,5.61,5.61,0,0,1-2.07,2.37l2.59-.15a4.5,4.5,0,0,0,.93-2.76A5.83,5.83,0,0,0,120.72,146.94Z" transform="translate(-49.32 -32.6)"/><path d="M120.33,147a5.27,5.27,0,0,1,.1,3.33,5.15,5.15,0,0,1-2.08,2.65c-.32.2-.22.78.2.75l1.73-.1a6.11,6.11,0,0,0,.86,0,.59.59,0,0,0,.44-.31,4.92,4.92,0,0,0,.85-2.14,6,6,0,0,0-1.42-4.52c-.33-.41-.9.17-.58.57a5.68,5.68,0,0,1,1.21,2.7,4.24,4.24,0,0,1-.85,3.09l.35-.2-2.59.15.21.76a5.72,5.72,0,0,0,2.35-6.89C120.94,146.34,120.16,146.55,120.33,147Z" transform="translate(-49.32 -32.6)"/><path d="M65.68,116.31c-4.09,3.48-7.08,8.52-6.84,14a11.43,11.43,0,0,0,2.67,7.21,10.65,10.65,0,0,0,7.11,3.35c1,.08,1-1.42,0-1.5a9.08,9.08,0,0,1-6.29-3.19,10.3,10.3,0,0,1-2-6.42c-.09-4.88,2.79-9.32,6.41-12.4.74-.62-.33-1.68-1.06-1.06Z" transform="translate(-49.32 -32.6)"/><path d="M62.37,136.82a10.64,10.64,0,0,0-7.17,7.28,8.06,8.06,0,0,0,1,7.17c1.53,2,4,2.64,6.34,3a15.13,15.13,0,0,0,8.43-1.1c.89-.37.12-1.67-.76-1.29A13.62,13.62,0,0,1,64.05,153c-2-.12-4.47-.56-6-1.91-3.06-2.67-1.71-7.87.81-10.42a9.61,9.61,0,0,1,3.94-2.37c.92-.29.53-1.73-.4-1.45Z" transform="translate(-49.32 -32.6)"/><path d="M60.07,146a8,8,0,0,0,.25,4,7.9,7.9,0,0,0,1.75,3l-2.13-.81a5.18,5.18,0,0,1-.93-2.76A5.68,5.68,0,0,1,60.07,146Z" transform="translate(-49.32 -32.6)"/><path d="M59.71,145.94a8.55,8.55,0,0,0,2.09,7.37l.37-.63L60,151.86l.23.18a5,5,0,0,1,.13-5.8c.28-.4-.38-.78-.65-.39a5.92,5.92,0,0,0-1.06,4.27,5.57,5.57,0,0,0,.78,2.09,1.23,1.23,0,0,0,.24.31,2.8,2.8,0,0,0,.69.29l1.57.6c.38.14.6-.38.37-.63a7.74,7.74,0,0,1-1.9-6.63C60.53,145.67,59.8,145.46,59.71,145.94Z" transform="translate(-49.32 -32.6)"/><path d="M65,146.94a5.31,5.31,0,0,0,2.17,6.43l-2.59-.15a4.56,4.56,0,0,1-.93-2.76A5.83,5.83,0,0,1,65,146.94Z" transform="translate(-49.32 -32.6)"/><path d="M64.63,146.83A5.71,5.71,0,0,0,67,153.72l.2-.76-2.59-.15.35.2a4.23,4.23,0,0,1-.84-3.09,5.57,5.57,0,0,1,1.2-2.7c.32-.4-.25-1-.57-.57a5.93,5.93,0,0,0-1.42,4.52,4.73,4.73,0,0,0,.83,2.11c.11.16.2.3.4.34a8.08,8.08,0,0,0,.85,0l1.79.1c.43,0,.52-.55.21-.75a5.1,5.1,0,0,1-2.08-2.65,5.34,5.34,0,0,1,.09-3.33C65.58,146.55,64.8,146.34,64.63,146.83Z" transform="translate(-49.32 -32.6)"/><path class="cls-6" d="M117.57,148a3.56,3.56,0,0,0-1-2c-1.45,1.56-5.32,5.26-10.94,5.59-.58,0-5.89-.1-7.87-2.5-1.65-2,.95-6.44.95-6.44,11.35,4.38,14.18-2.58,14.73-4.46a0,0,0,0,1,0,0,3.72,3.72,0,0,0,.09-.4v0c-4.65,3.2-7.68,3.18-9.64,2a5.33,5.33,0,0,1-.17-8.71,17.6,17.6,0,0,0,7.47-14,32.87,32.87,0,0,1-13.13,8.72,15.86,15.86,0,0,1-11,0A32.78,32.78,0,0,1,73.93,117a17.6,17.6,0,0,0,7.47,14,5.34,5.34,0,0,1-.18,8.71c-2,1.21-5,1.23-9.63-2v0s0,.19.1.4c0,0,0,0,0,0,.54,1.88,3.38,8.84,14.72,4.46,0,0,2.61,4.43,1,6.44S74.07,155,69,146c-.07.2-.13.41-.18.61a6.3,6.3,0,0,0,4.64,7.77A28.7,28.7,0,0,0,88,153.8a7.52,7.52,0,0,0,4.07-3.19,3.72,3.72,0,0,0,.19-.34,2.36,2.36,0,0,0,.29-1.14,2.46,2.46,0,0,0,.28,1.14l.2.34a7.45,7.45,0,0,0,4.07,3.19c8.57,2.8,14.59.56,14.59.56C112.27,154.09,117.92,151.34,117.57,148Z" transform="translate(-49.32 -32.6)"/><path class="cls-7" d="M54.07,34c-1.4.7-2.21,2.22-3,6a47.11,47.11,0,0,0-1,10c.13,7.54.19,11.31,1.1,14.51A33.06,33.06,0,0,0,57.07,76a28.89,28.89,0,0,1,5-16,28.13,28.13,0,0,1,7-7,57.93,57.93,0,0,0-4-9,57.43,57.43,0,0,0-7-10A5.28,5.28,0,0,0,54.07,34Z" transform="translate(-49.32 -32.6)"/><path class="cls-5" d="M66.07,46c-2.16-.93-4.36-.22-5,1-.72,1.41.27,4.09,3,5a4.78,4.78,0,0,0-1,7l6-7Z" transform="translate(-49.32 -32.6)"/><path class="cls-5" d="M66.07,44a33.4,33.4,0,0,1,3,8l9-4-2.5-7.5a29.14,29.14,0,0,0-2.42-1.64,31.43,31.43,0,0,0-14.58-4.36A33.85,33.85,0,0,1,66.07,44Z" transform="translate(-49.32 -32.6)"/><g class="cls-3"><path d="M74.57,40c0,.58,0,1.18,0,1.8a18.89,18.89,0,0,1-3,9.48l7-3.28a8.19,8.19,0,0,1-2-4,8,8,0,0,1,0-3Z" transform="translate(-49.32 -32.6)"/><path d="M74.07,40a18.89,18.89,0,0,1-2.93,11c-.3.46.26.88.68.69l7-3.28a.51.51,0,0,0,.1-.79,7.81,7.81,0,0,1-1.87-6.51.52.52,0,0,0-.23-.57l-2-1c-.57-.29-1.08.58-.51.87l2,1-.23-.57a8.86,8.86,0,0,0,2.13,7.49l.1-.79-7,3.28.68.69A19.75,19.75,0,0,0,75.07,40C75.05,39.4,74,39.4,74.07,40Z" transform="translate(-49.32 -32.6)"/></g><path class="cls-4" d="M67.07,36c-.6.64,1.46,3.91,4,6a14.33,14.33,0,0,0,6.5,3l-1.5-4C69.47,36.25,67.51,35.58,67.07,36Z" transform="translate(-49.32 -32.6)"/><g class="cls-3"><path d="M66.81,35.78c-.54.68,0,1.68.39,2.31a15.28,15.28,0,0,0,2.62,3.32,14.9,14.9,0,0,0,7.65,4,.38.38,0,0,0,.46-.47l-.75-3a3,3,0,0,0-.35-1.16,5.43,5.43,0,0,0-1.14-.8c-1.28-.87-2.57-1.72-3.9-2.52a12.15,12.15,0,0,0-4-1.89,1.09,1.09,0,0,0-1,.21c-.33.35.19.88.53.53.07-.08-.07,0,0,0-.09.06.08,0,0,0a1.3,1.3,0,0,1,.4,0,6.8,6.8,0,0,1,1.56.63,59,59,0,0,1,7,4.42l-.17-.23,1,4,.46-.46a14.07,14.07,0,0,1-6.83-3.34,15.63,15.63,0,0,1-2.57-2.94,7.72,7.72,0,0,1-.74-1.31c0-.12-.3-.65-.19-.78C67.63,35.93,67.11,35.4,66.81,35.78Z" transform="translate(-49.32 -32.6)"/></g><path d="M76.81,40.33A39.38,39.38,0,0,0,57.93,33c-.68-.08-1,.86-.53,1.28a44.31,44.31,0,0,1,11.07,18.4.75.75,0,0,0,1.44-.4A45.88,45.88,0,0,0,58.46,33.23l-.53,1.28a37.72,37.72,0,0,1,18.12,7.12c.78.57,1.53-.73.76-1.3Z" transform="translate(-49.32 -32.6)"/><path d="M58.27,33.1c-7.5-1.92-8.44,8.33-8.76,13.36-.45,7.09-.21,14.26,2,21.08a40.85,40.85,0,0,0,4,8.66.75.75,0,0,0,1.3-.76,40.44,40.44,0,0,1-5.24-14.29,56.74,56.74,0,0,1-.63-11.35,52.75,52.75,0,0,1,.89-9.22c.67-3.17,2.13-7.06,6.13-6a.75.75,0,0,0,.4-1.45Z" transform="translate(-49.32 -32.6)"/><path d="M66.45,45.18c-2.21-1-5.81-.68-6.37,2.21-.47,2.42,1.32,4.58,3.48,5.39l-.33-1.25a6.63,6.63,0,0,0-1.13,8.21A.75.75,0,0,0,63.39,59a5.11,5.11,0,0,1,.9-6.39A.76.76,0,0,0,64,51.33a3.55,3.55,0,0,1-2.44-3.49c.23-1.9,2.82-2,4.17-1.37.88.39,1.64-.91.76-1.29Z" transform="translate(-49.32 -32.6)"/><g class="cls-3"><path d="M65.57,45.32c-.14.1-.76-1-3-3s-3.68-3.3-6-4a10.72,10.72,0,0,0-5-.24c.87-1.72,2.37-4.07,4.46-4.26C61,33.38,66,45,65.57,45.32Z" transform="translate(-49.32 -32.6)"/></g><g class="cls-3"><path d="M64.57,44.32c-1.88-1-3.88-1-5,0a4,4,0,0,0-1,3,7.44,7.44,0,0,0,2,5,7,7,0,0,0-1,2c-.6,2,0,3.27,0,5,0,2.15-1.12,3.18-2,5-1,2-1.81,5.17-1,10a35.74,35.74,0,0,1,6-14.58c-.15-.26-1.8-3.25-.33-6a5.45,5.45,0,0,1,1.84-2,3.89,3.89,0,0,1-3-2,3.34,3.34,0,0,1,0-3,3.8,3.8,0,0,1,1.68-1.44h0a5.12,5.12,0,0,1,2.82-.06Z" transform="translate(-49.32 -32.6)"/></g><g class="cls-3"><path d="M64.57,58l5-5-3-7a3.41,3.41,0,0,0-2,2,3.52,3.52,0,0,0,2,4,7,7,0,0,0-2,6Z" transform="translate(-49.32 -32.6)"/></g><path class="cls-4" d="M101.19,46.09c.32-.38.81-.94,1.43-1.59a34.88,34.88,0,0,1,12.95-9,31.73,31.73,0,0,1,10-2,39.65,39.65,0,0,0-11,19,51.57,51.57,0,0,0-5-3A50.25,50.25,0,0,0,101.19,46.09Z" transform="translate(-49.32 -32.6)"/><path class="cls-7" d="M114.47,52.25a52,52,0,0,1,3.6-9.21c2.32-4.56,4-6.17,5-7,1.51-1.25,3.56-2.95,5.5-2.5,2.71.63,3.75,5.1,4.5,8.5a46.32,46.32,0,0,1-1,23,51.41,51.41,0,0,1-4.5,10.5,34.41,34.41,0,0,0-13.1-23.29Z" transform="translate(-49.32 -32.6)"/><path class="cls-5" d="M117.07,46a3.82,3.82,0,0,1,4-1,3.55,3.55,0,0,1,2,2c.53,1.67-.61,3.91-3,5a6.81,6.81,0,0,1,1.5,2.5,7.37,7.37,0,0,1-.5,5.5l-7-7Z" transform="translate(-49.32 -32.6)"/><path d="M102.07,46.45a37.11,37.11,0,0,1,23.64-12.22L125.18,33A29,29,0,0,0,118,41.86a52.29,52.29,0,0,0-4.55,11,.75.75,0,0,0,1.44.4,50,50,0,0,1,4.41-10.64,27.86,27.86,0,0,1,6.9-8.61.76.76,0,0,0-.53-1.28A38.62,38.62,0,0,0,101,45.39c-.64.71.42,1.78,1.06,1.06Z" transform="translate(-49.32 -32.6)"/><path d="M125.77,34.27c6.75-1.73,6.81,10,7,14a53.14,53.14,0,0,1-2.13,19,39.26,39.26,0,0,1-3.69,7.91.75.75,0,0,0,1.3.75,42.38,42.38,0,0,0,5.66-16.44,66.72,66.72,0,0,0,.33-12,35.1,35.1,0,0,0-1.5-9.94c-1.18-3.33-3.57-5.69-7.34-4.73a.75.75,0,0,0,.4,1.45Z" transform="translate(-49.32 -32.6)"/><path d="M118,46.19c1.35-.59,4-.53,4.18,1.38a3.58,3.58,0,0,1-2.45,3.49.76.76,0,0,0-.33,1.25,5.11,5.11,0,0,1,.9,6.39.75.75,0,0,0,1.3.76,6.63,6.63,0,0,0-1.14-8.21l-.33,1.25c2.16-.81,4-3,3.48-5.39-.55-2.89-4.16-3.18-6.37-2.21-.88.39-.12,1.68.76,1.29Z" transform="translate(-49.32 -32.6)"/><g class="cls-3"><path d="M118.07,45c.15.1.76-1,3-3s3.68-3.3,6-4a10.73,10.73,0,0,1,5-.24c-.86-1.72-2.36-4.07-4.46-4.26C122.68,33.11,117.62,44.73,118.07,45Z" transform="translate(-49.32 -32.6)"/></g><g class="cls-3"><path d="M119.07,44c1.88-1,3.89-1,5,0a4,4,0,0,1,1,3,7.41,7.41,0,0,1-2,5,6.71,6.71,0,0,1,1,2c.61,2,0,3.27,0,5,.05,2.15,1.12,3.18,2,5,1,2,1.81,5.17,1,10A34.74,34.74,0,0,0,125,66.59a35.09,35.09,0,0,0-3.88-7.13c.15-.26,1.8-3.24.33-6a5.32,5.32,0,0,0-1.84-2,3.89,3.89,0,0,0,3-2,3.3,3.3,0,0,0,0-3,3.66,3.66,0,0,0-1.68-1.43h0a5,5,0,0,0-2.82-.07Z" transform="translate(-49.32 -32.6)"/></g><g class="cls-3"><path d="M111.07,38a15.19,15.19,0,0,0,1,13,40.39,40.39,0,0,0-10.5-4.5,20.51,20.51,0,0,1,2.5-3.5A20.08,20.08,0,0,1,111.07,38Z" transform="translate(-49.32 -32.6)"/></g><g class="cls-3"><path d="M119.57,58l-5.5-5,3-7a3.46,3.46,0,0,1,1.5,2,3.78,3.78,0,0,1-2,4,6.65,6.65,0,0,1,2,2A6.76,6.76,0,0,1,119.57,58Z" transform="translate(-49.32 -32.6)"/></g><path class="cls-4" d="M78.07,48a37.69,37.69,0,0,0-8,5c-2.8,2.3-12.15,10-13,20-.17,2.11-.06,5.32-2,9a16.76,16.76,0,0,1-2.91,4,13.33,13.33,0,0,0,4.74,4l-1.83,3a14.14,14.14,0,0,0,2,5,10.39,10.39,0,0,0,4,4,9.29,9.29,0,0,0,5,1,36.06,36.06,0,0,0,18,10c10.77,2.3,19.52-1.3,23.76-3.11A45.37,45.37,0,0,0,119.07,103a15.89,15.89,0,0,0,11-10l-3-2a11,11,0,0,0,2-2,11.35,11.35,0,0,0,2-4,31.62,31.62,0,0,1-3-5c-3.12-6.49-1.49-8.88-4-15a29.43,29.43,0,0,0-8-11,33.28,33.28,0,0,0-6-4c-4.89-2.53-6.43-1.75-9.61-4.11C97.8,44,98,42.76,95.07,40a25,25,0,0,0-8-5,25.33,25.33,0,0,1,1,4,26.49,26.49,0,0,1,.37,4.41A20.27,20.27,0,0,0,76.07,41c.35.94.69,1.94,1,3C77.49,45.45,77.82,46.79,78.07,48Z" transform="translate(-49.32 -32.6)"/><g class="cls-3"><path d="M66,101.37a28.07,28.07,0,0,1,18.64-16,27.4,27.4,0,0,1,23.68,5.15,28,28,0,0,1,7.66,9.52c.21.43.41.86.6,1.3a5.36,5.36,0,0,1,.62,1.58c0,.46-.94,1.12-1.33,1.48a36.35,36.35,0,0,1-4.38,3.43,35.4,35.4,0,0,1-25,5.6A31.5,31.5,0,0,1,66,101c-.28-.39-.93,0-.65.37a32,32,0,0,0,16.85,11.9A35.81,35.81,0,0,0,107.47,111a37.25,37.25,0,0,0,10.45-7.55.37.37,0,0,0,.1-.36,28.8,28.8,0,0,0-18-17.86,28.17,28.17,0,0,0-25.27,4A28.85,28.85,0,0,0,65.33,101C65.14,101.43,65.79,101.82,66,101.37Z" transform="translate(-49.32 -32.6)"/></g><g class="cls-3"><path d="M99.35,46.35a22.49,22.49,0,0,0,4.49,19A21.62,21.62,0,0,0,121,73a23,23,0,0,0,5.29-.68.76.76,0,0,0,.55-.73,20.24,20.24,0,0,0-3-9.4,44.61,44.61,0,0,0-6-7,33,33,0,0,0-17.56-9.32c-1-.17-1.35,1.27-.4,1.45A31.47,31.47,0,0,1,116.53,56a47.24,47.24,0,0,1,5.54,6.29,18.85,18.85,0,0,1,3.25,9.28l.55-.72a21.24,21.24,0,0,1-16.19-2.32C102.36,64,99,55,100.79,46.74,101,45.8,99.55,45.4,99.35,46.35Z" transform="translate(-49.32 -32.6)"/></g><path class="cls-5" d="M65.66,102a27.48,27.48,0,0,1,52,2,34.51,34.51,0,0,1-15,9,36.42,36.42,0,0,1-14,1,33.18,33.18,0,0,1-12-3A30.84,30.84,0,0,1,65.66,102Z" transform="translate(-49.32 -32.6)"/><path class="cls-5" d="M100.07,47.11a21.56,21.56,0,0,0,8,20.93c7.55,5.65,16.21,3.8,17.5,3.5a19.47,19.47,0,0,0-1.5-6.5c-.29-.68-1.34-3.05-5.5-7.5-3.61-3.86-5.42-5.8-8.5-7.5A24.72,24.72,0,0,0,100.07,47.11Z" transform="translate(-49.32 -32.6)"/><g class="cls-3"><path d="M77.07,41a13.56,13.56,0,0,0,7,8,12.79,12.79,0,0,0,7,1,6.45,6.45,0,0,1-2,2,7.35,7.35,0,0,1-4,1,10.84,10.84,0,0,1-7-2,9.82,9.82,0,0,1-2-2l2-1a18.21,18.21,0,0,1-1-5A19,19,0,0,1,77.07,41Z" transform="translate(-49.32 -32.6)"/></g><g class="cls-3"><path d="M55.07,93c2.82,3.44,4.66,4.94,5.5,4.5.47-.24.64-1.07.5-2.5a34.34,34.34,0,0,0,5.5,5.5A36.92,36.92,0,0,0,86,108.17,10.79,10.79,0,0,0,98.34,108a39.4,39.4,0,0,0,20.73-9,34,34,0,0,0,3.5-3.5c.2,1.5.71,1.88,1,2,1.18.51,3.33-1.3,5.5-4.5a17.74,17.74,0,0,1-2.5,4.5,18.67,18.67,0,0,1-8,6,39.26,39.26,0,0,1-24,10c-15.51.8-25.94-8.15-28-10a12.54,12.54,0,0,1-6-2A13.29,13.29,0,0,1,55.07,93Z" transform="translate(-49.32 -32.6)"/></g><path d="M118.92,104.35a18.09,18.09,0,0,0,7.1-4.19,20.54,20.54,0,0,0,4.47-6.88.75.75,0,0,0-.34-.85l-3.69-2.24c-.82-.5-1.58.79-.75,1.3l3.68,2.24-.34-.85A18.89,18.89,0,0,1,125,99.1a16.27,16.27,0,0,1-6.44,3.8c-.92.3-.53,1.75.4,1.45Z" transform="translate(-49.32 -32.6)"/><path d="M88.37,49.82a8.38,8.38,0,0,1-11.05-9.28l-.75.75a29.86,29.86,0,0,1,12.24,3,.76.76,0,0,0,1-1,13.4,13.4,0,0,1-1.75-7.73L87,36.19A33.69,33.69,0,0,1,99.14,46a4.61,4.61,0,0,0,.93,1.16,8.7,8.7,0,0,0,2,.51A35.12,35.12,0,0,1,105.89,49a32.31,32.31,0,0,1,6.19,3.38,42.31,42.31,0,0,1,9.09,9.13,20.74,20.74,0,0,1,3.67,6.91,63.7,63.7,0,0,1,1.23,6.27A31.37,31.37,0,0,0,128.85,83a9,9,0,0,1,.88,1.64,4.08,4.08,0,0,1-.37,1.52A11.88,11.88,0,0,1,127,90c-.63.73.43,1.79,1.06,1.06A14.38,14.38,0,0,0,130,88.31c.52-1,1.37-2.59,1.29-3.77,0-.85-1-2-1.36-2.72a28.85,28.85,0,0,1-1.71-4.42c-1.41-4.79-1.39-9.73-4-14.14a41.81,41.81,0,0,0-8.82-10.21,34.39,34.39,0,0,0-13.63-7A2.17,2.17,0,0,1,100.27,45c-.5-.63-1-1.25-1.54-1.86a35.05,35.05,0,0,0-11-8.25.76.76,0,0,0-1.13.65,14.93,14.93,0,0,0,2,8.49l1-1a31.72,31.72,0,0,0-13-3.22.78.78,0,0,0-.75.75,9.87,9.87,0,0,0,13,10.73c.92-.3.53-1.74-.4-1.45Z" transform="translate(-49.32 -32.6)"/><path d="M66.57,102.79A13.76,13.76,0,0,1,55.3,93.35l-.08.57,2.68-3.55c.58-.77-.72-1.52-1.29-.76l-2.37,3.14c-.32.43-.48.68-.32,1.2a7.17,7.17,0,0,0,.37,1,15.06,15.06,0,0,0,3.15,4.87,15.32,15.32,0,0,0,9.13,4.46c1,.13,1-1.38,0-1.5Z" transform="translate(-49.32 -32.6)"/><path d="M57,89.9a5.4,5.4,0,0,1-3-3.37,3.65,3.65,0,0,1-.19-1.5c0-.08.09-.31,0-.18s.29-.19.33-.22a8.39,8.39,0,0,0,1.65-2c1.2-1.89,1.35-4.09,1.71-6.25.56-3.46,1-6.82,2.68-10A48.57,48.57,0,0,1,67.1,56a28.7,28.7,0,0,1,10.8-7.17c.9-.34.51-1.79-.4-1.44a30.87,30.87,0,0,0-10,6.09c-3.36,3.1-5.69,7-7.94,11a23.35,23.35,0,0,0-2.36,5.28,55.73,55.73,0,0,0-1.06,5.74c-.41,2.51-.51,5.16-2.22,7.2-.53.63-1.49,1.11-1.6,2a6.23,6.23,0,0,0,.53,3.07,6.84,6.84,0,0,0,3.34,3.45c.87.42,1.63-.88.76-1.29Z" transform="translate(-49.32 -32.6)"/><path d="M62.91,99.62a35,35,0,0,0,25,14.92A39.4,39.4,0,0,0,110.34,110a39,39,0,0,0,11.76-9.93c.6-.74-.45-1.81-1.06-1.06a37.21,37.21,0,0,1-17.74,12.35c-9.56,3-20.11,2.44-28.8-2.81a34.59,34.59,0,0,1-10.29-9.69c-.55-.78-1.86,0-1.3.76Z" transform="translate(-49.32 -32.6)"/><g class="cls-3"><path d="M68.54,107.07a33.69,33.69,0,0,0,21.55,9.3,38.15,38.15,0,0,0,17.5-3.5,37.3,37.3,0,0,0,10-6.8c.7-.66-.36-1.72-1.06-1.06-9.58,9-24.21,12.59-36.62,7.68A33.13,33.13,0,0,1,69.6,106c-.71-.66-1.77.4-1.06,1.06Z" transform="translate(-49.32 -32.6)"/></g><g class="cls-8"><path d="M97.35,86.81c.31.53-.72,1.64-1.24,2.1a5.37,5.37,0,0,1-2,1.13l2.13-3.52C97.09,86.47,97.29,86.71,97.35,86.81Z" transform="translate(-49.32 -32.6)"/></g><g class="cls-8"><path d="M87.61,86.7c-.35.47.38,1.6,1,2.21a3.92,3.92,0,0,0,1.76,1l-1.67-3.35C87.9,86.38,87.67,86.62,87.61,86.7Z" transform="translate(-49.32 -32.6)"/></g><path d="M96.87,85c.61,1.89-1.87,5.12-4.72,5-2.68-.11-4.91-3.15-4.28-5s3.68-2,4-2C93.59,82.92,96.35,83.42,96.87,85Z" transform="translate(-49.32 -32.6)"/><path d="M96.51,85.14c.45,1.51-.94,3.15-2.11,3.89a3.88,3.88,0,0,1-4.85-.55c-1-.9-2.09-2.77-.91-3.94a5.2,5.2,0,0,1,3.22-1.12,7.82,7.82,0,0,1,2.59.25,2.81,2.81,0,0,1,2.06,1.47c.16.46.89.26.73-.2-.65-1.85-3.15-2.29-4.86-2.29a6.57,6.57,0,0,0-4.07,1.18c-1.56,1.27-.84,3.4.27,4.72A4.74,4.74,0,0,0,94.16,90c1.74-.78,3.68-3,3.08-5.06A.38.38,0,0,0,96.51,85.14Z" transform="translate(-49.32 -32.6)"/><g class="cls-8"><path class="cls-5" d="M92.37,83a4.12,4.12,0,0,0-3,1h6A4.14,4.14,0,0,0,92.37,83Z" transform="translate(-49.32 -32.6)"/></g><path d="M104.56,87.85c-.4,2.82-2.44,5.58-5.52,5.59a5.94,5.94,0,0,1-5.46-3.66c-.39-.88-1.68-.12-1.3.76a7.41,7.41,0,0,0,7,4.4c3.62-.15,6.27-3.26,6.77-6.7a.77.77,0,0,0-.53-.92.75.75,0,0,0-.92.53Z" transform="translate(-49.32 -32.6)"/><g class="cls-3"><path d="M105.09,88a8.73,8.73,0,0,1-6,3,8.92,8.92,0,0,1-7-3,7.47,7.47,0,0,0,3,5c2.75,1.85,7.06,1.56,9-1A5.82,5.82,0,0,0,105.09,88Z" transform="translate(-49.32 -32.6)"/></g><path d="M78.23,88.24c.5,3.44,3.15,6.55,6.77,6.7a7.41,7.41,0,0,0,7-4.4c.38-.88-.91-1.64-1.3-.76a5.93,5.93,0,0,1-5.45,3.66c-3.09,0-5.12-2.76-5.53-5.59a.76.76,0,0,0-.92-.53.78.78,0,0,0-.53.92Z" transform="translate(-49.32 -32.6)"/><g class="cls-3"><path d="M79.15,88a8.73,8.73,0,0,0,6,3,8.92,8.92,0,0,0,7-3,7.47,7.47,0,0,1-3,5c-2.75,1.85-7.06,1.56-9-1A5.82,5.82,0,0,1,79.15,88Z" transform="translate(-49.32 -32.6)"/></g><g class="cls-8"><path d="M97.35,86.81c.31.53-.72,1.64-1.24,2.1a5.37,5.37,0,0,1-2,1.13l2.13-3.52C97.09,86.47,97.29,86.71,97.35,86.81Z" transform="translate(-49.32 -32.6)"/></g><g class="cls-8"><path d="M87.61,86.7c-.35.47.38,1.6,1,2.21a3.92,3.92,0,0,0,1.76,1l-1.67-3.35C87.9,86.38,87.67,86.62,87.61,86.7Z" transform="translate(-49.32 -32.6)"/></g><g class="cls-3"><path d="M96.87,85c.61,1.89-1.87,5.12-4.72,5-2.68-.11-4.91-3.15-4.28-5s3.68-2,4-2C93.59,82.92,96.35,83.42,96.87,85Z" transform="translate(-49.32 -32.6)"/><path d="M96.15,85.24a1.51,1.51,0,0,1,0,.73,3.11,3.11,0,0,1-.39,1,4.66,4.66,0,0,1-1.59,1.68,3.49,3.49,0,0,1-4.4-.49,4.2,4.2,0,0,1-1.22-1.92,1.42,1.42,0,0,1,.31-1.48A3.66,3.66,0,0,1,90.58,84a8.85,8.85,0,0,1,.87-.16l.15,0,.26,0a7.48,7.48,0,0,1,2.49.23c.67.18,1.56.53,1.8,1.21.32.91,1.77.52,1.45-.39-.72-2-3.32-2.58-5.22-2.57a7,7,0,0,0-4.33,1.28c-1.74,1.41-1,3.79.26,5.25a5.11,5.11,0,0,0,6,1.52c1.9-.86,3.9-3.27,3.25-5.48A.75.75,0,0,0,96.15,85.24Z" transform="translate(-49.32 -32.6)"/></g><g class="cls-9"><path d="M71.57,78c1.42-2.83,4.1-4.54,6.73-4.32A6.19,6.19,0,0,1,82.57,76c.78,1,1.44,2.62,1,3s-2.41-1.69-5.27-2.32A9.77,9.77,0,0,0,71.57,78Z" transform="translate(-49.32 -32.6)"/><path d="M71.89,78.23a7.64,7.64,0,0,1,4.35-3.91,5.6,5.6,0,0,1,5.44,1.3,5.76,5.76,0,0,1,1.58,2.55c0,.07.14.53.07.58s-.5-.23-.58-.27a13.93,13.93,0,0,0-4.57-2.17,10.36,10.36,0,0,0-6.8,1.41c-.42.23,0,.88.38.65,2.31-1.26,4.95-1.93,7.51-1a13.73,13.73,0,0,1,2.66,1.45c.43.27,1,.74,1.56.63s.64-.92.51-1.44a6.44,6.44,0,0,0-7.24-4.61,8.07,8.07,0,0,0-5.52,4.43C71,78.28,71.67,78.66,71.89,78.23Z" transform="translate(-49.32 -32.6)"/></g><path d="M71.05,77.76a7.73,7.73,0,0,1,7-5c2.5.06,5.23,1.69,6,4,0,.15.53,1.61,0,2-.84.61-2.9-2.35-6-3C76.56,75.45,74.28,75.55,71.05,77.76Z" transform="translate(-49.32 -32.6)"/><path d="M71.37,78a7.86,7.86,0,0,1,5.29-4.69A6.56,6.56,0,0,1,83,75.6a4.08,4.08,0,0,1,.91,2.5c0,.38-.11.41-.41.28a5.13,5.13,0,0,1-1-.63,10.63,10.63,0,0,0-5.13-2.46c-2.37-.24-4.65.86-6.56,2.15-.4.26,0,.91.38.64,1.93-1.3,4.31-2.46,6.71-2a9,9,0,0,1,3.38,1.66,7.53,7.53,0,0,0,2.16,1.39c.8.21,1.2-.49,1.18-1.21a5,5,0,0,0-.94-2.63,7.29,7.29,0,0,0-6.56-2.9,8.38,8.38,0,0,0-6.45,5.14C70.53,78,71.18,78.39,71.37,78Z" transform="translate(-49.32 -32.6)"/><g class="cls-3"><path d="M84.13,69.9a6.66,6.66,0,0,0-3.26-4.5,6.53,6.53,0,0,0-4.74-.5,14.13,14.13,0,0,1,3.76,1.44A14.42,14.42,0,0,1,84.13,69.9Z" transform="translate(-49.32 -32.6)"/></g><path d="M84.3,70.48A6,6,0,0,0,81,65a6.15,6.15,0,0,0-5,0,9.72,9.72,0,0,1,4,1A9.84,9.84,0,0,1,84.3,70.48Z" transform="translate(-49.32 -32.6)"/><g class="cls-9"><path d="M113,78.15c-1.42-2.83-4.11-4.55-6.73-4.32A6.14,6.14,0,0,0,102,76.15c-.78,1-1.45,2.61-1,3s2.4-1.7,5.27-2.32A9.78,9.78,0,0,1,113,78.15Z" transform="translate(-49.32 -32.6)"/><path d="M113.34,78a8.35,8.35,0,0,0-4.72-4.23,6.32,6.32,0,0,0-5.82,1.11,6.67,6.67,0,0,0-2,2.63c-.23.54-.62,1.57,0,2,.42.29,1,0,1.34-.22.77-.45,1.48-1,2.28-1.37,2.79-1.4,5.73-.85,8.38.59.42.23.8-.42.38-.65a10.7,10.7,0,0,0-5.95-1.52,10.85,10.85,0,0,0-5,2c-.19.12-.91.65-1,.48s.21-.92.29-1.1a6.54,6.54,0,0,1,.78-1.32,5.67,5.67,0,0,1,5.31-2.11,7.32,7.32,0,0,1,5.06,4.08C112.91,78.77,113.56,78.39,113.34,78Z" transform="translate(-49.32 -32.6)"/></g><path d="M113.54,77.87a7.72,7.72,0,0,0-7-5c-2.5.06-5.23,1.68-6,4-.05.15-.54,1.61,0,2,.84.61,2.89-2.36,6-3C108,75.56,110.31,75.66,113.54,77.87Z" transform="translate(-49.32 -32.6)"/><path d="M113.86,77.68a8.52,8.52,0,0,0-5.65-5,7.33,7.33,0,0,0-6.79,2.07A5.42,5.42,0,0,0,100,77.4c-.14.65-.22,1.76.65,1.91.7.12,1.42-.55,1.92-.93a12.86,12.86,0,0,1,3.16-1.89c2.68-1,5.37.2,7.61,1.7.4.27.78-.38.38-.65a10.93,10.93,0,0,0-6-2.18,9.07,9.07,0,0,0-5.12,2.11c-.33.24-.65.49-1,.72-.14.1-.54.43-.74.38-.53-.13.14-1.83.3-2.16a6.43,6.43,0,0,1,5.94-3.16c2.82.17,5.05,2.33,6.15,4.81C113.41,78.5,114.06,78.12,113.86,77.68Z" transform="translate(-49.32 -32.6)"/><g class="cls-3"><path d="M100.45,70a6.71,6.71,0,0,1,3.26-4.49,6.61,6.61,0,0,1,4.74-.51,14.7,14.7,0,0,0-3.76,1.45A14.54,14.54,0,0,0,100.45,70Z" transform="translate(-49.32 -32.6)"/></g><path d="M100.29,70.59a6.05,6.05,0,0,1,3.32-5.44,6.14,6.14,0,0,1,5,0,9.56,9.56,0,0,0-4,1A9.76,9.76,0,0,0,100.29,70.59Z" transform="translate(-49.32 -32.6)"/><path class="cls-10" d="M93,165.58c7.28,0,12.25-1.7,15.3-3.27a6.39,6.39,0,0,0,3-7l-1.54-7.61s-.25,7.63-16.66,7.63-16.65-7.63-16.65-7.63l-1.54,7.61a6.39,6.39,0,0,0,2.95,7c3.05,1.57,8,3.27,15.3,3.27" transform="translate(-49.32 -32.6)"/><g class="cls-3"><path class="cls-11" d="M93.12,165.58h0Z" transform="translate(-49.32 -32.6)"/></g><g class="cls-3"><path class="cls-11" d="M111.26,155.35l-1.54-7.61a4.9,4.9,0,0,1-.85,2.27l.64,3.16a5.79,5.79,0,0,1-2.67,6.29,29.93,29.93,0,0,1-13.78,2.95h0a29.92,29.92,0,0,1-13.77-2.95,5.79,5.79,0,0,1-2.67-6.29l.64-3.16a4.9,4.9,0,0,1-.85-2.27l-1.54,7.61a6.39,6.39,0,0,0,2.95,7c3,1.57,8,3.26,15.24,3.27s12.21-1.7,15.25-3.27A6.39,6.39,0,0,0,111.26,155.35Z" transform="translate(-49.32 -32.6)"/></g><path d="M93.12,166.35H93c-7.46,0-12.51-1.82-15.44-3.34a7.19,7.19,0,0,1-3.33-7.83l1.54-7.61a.68.68,0,0,1,.71-.59.73.73,0,0,1,.6.73,5.23,5.23,0,0,0,2.05,3.35c1.87,1.62,5.8,3.54,13.94,3.54s12.08-1.92,14-3.54a5.28,5.28,0,0,0,2-3.36.74.74,0,0,1,.6-.73.69.69,0,0,1,.71.6l1.54,7.61a7.19,7.19,0,0,1-3.33,7.83c-2.93,1.52-8,3.32-15.44,3.34ZM76.58,150.24l-1.07,5.29a5.6,5.6,0,0,0,2.58,6.08,32.6,32.6,0,0,0,15,3.2c7.27,0,12.16-1.75,15-3.2a5.6,5.6,0,0,0,2.58-6.08l-1.07-5.29c-1.46,2.47-5.47,5.9-16.49,5.9S78,152.71,76.58,150.24Z" transform="translate(-49.32 -32.6)"/><ellipse class="cls-10" cx="43.81" cy="116.18" rx="16.91" ry="6.97"/><g class="cls-12"><path class="cls-5" d="M108.74,146.11a3,3,0,0,1,.43,1.52c0,3.66-7.19,6.62-16,6.62s-16-3-16-6.62a3,3,0,0,1,.43-1.52,3.82,3.82,0,0,0-1.29,2.68c0,3.85,7.57,7,16.9,7s16.91-3.12,16.91-7A3.82,3.82,0,0,0,108.74,146.11Z" transform="translate(-49.32 -32.6)"/></g><g class="cls-13"><ellipse cx="43.9" cy="116.31" rx="11" ry="3.7"/><path class="cls-14" d="M90.36,150.77a.41.41,0,0,1-.47.22l-1.45-.37a.51.51,0,0,1-.23-.14l-1.7-1.7a.69.69,0,0,1-.13-.79l1.29-2.4a.5.5,0,0,1,.15-.17.36.36,0,0,1,.35,0l1.57.53a.41.41,0,0,1,.21.14l1.55,1.65a.73.73,0,0,1,.16.3.74.74,0,0,1,0,.49Z" transform="translate(-49.32 -32.6)"/><path class="cls-15" d="M90.36,150.77a.41.41,0,0,1-.47.22l-1.45-.37a.51.51,0,0,1-.23-.14l-.1-.1-1.6-1.6a.69.69,0,0,1-.13-.79l1.29-2.4a.5.5,0,0,1,.15-.17l1.9,1.94,1.94.64a.74.74,0,0,1,0,.49Z" transform="translate(-49.32 -32.6)"/><path class="cls-16" d="M90.36,150.77a.41.41,0,0,1-.47.22l-1.45-.37a.51.51,0,0,1-.23-.14l-.1-.1,1.61-3,1.94.64a.74.74,0,0,1,0,.49Z" transform="translate(-49.32 -32.6)"/><path class="cls-17" d="M87.24,150.64a.66.66,0,0,1-.19.59l-1.21,1.07a.57.57,0,0,1-.23.12l-2.16.4a.49.49,0,0,1-.55-.43c-.15-.75-.41-2.14-.54-2.81a.7.7,0,0,1,0-.25.58.58,0,0,1,.21-.35L84,147.9a.67.67,0,0,1,.23-.1l2-.28a.49.49,0,0,1,.29.06.55.55,0,0,1,.25.38Z" transform="translate(-49.32 -32.6)"/><path class="cls-18" d="M87.24,150.64a.66.66,0,0,1-.19.59l-1.21,1.07a.57.57,0,0,1-.23.12l-.13,0-2,.38a.49.49,0,0,1-.55-.43c-.15-.75-.41-2.14-.54-2.81a.7.7,0,0,1,0-.25l2.43-.42,1.7-1.33a.55.55,0,0,1,.25.38Z" transform="translate(-49.32 -32.6)"/><path class="cls-19" d="M87.24,150.64a.66.66,0,0,1-.19.59l-1.21,1.07a.57.57,0,0,1-.23.12l-.13,0-.68-3.53,1.7-1.33a.55.55,0,0,1,.25.38Z" transform="translate(-49.32 -32.6)"/><path class="cls-20" d="M94.3,149.36a.48.48,0,0,1-.4.38l-1.47.17a.43.43,0,0,1-.25,0l-2-1a.64.64,0,0,1-.3-.72c.18-.74.52-2.1.68-2.75a.64.64,0,0,1,.1-.22A.49.49,0,0,1,91,145l1.63,0a.46.46,0,0,1,.23,0l1.86,1a.57.57,0,0,1,.23.23.72.72,0,0,1,.06.48Z" transform="translate(-49.32 -32.6)"/><path class="cls-21" d="M94.3,149.36a.48.48,0,0,1-.4.38l-1.47.17a.43.43,0,0,1-.25,0l-.12-.06-1.91-1a.64.64,0,0,1-.3-.72c.18-.74.52-2.1.68-2.75a.64.64,0,0,1,.1-.22l2.27,1.18,2-.08a.72.72,0,0,1,.06.48Z" transform="translate(-49.32 -32.6)"/><path class="cls-22" d="M94.3,149.36a.48.48,0,0,1-.4.38l-1.47.17a.43.43,0,0,1-.25,0l-.12-.06.84-3.47,2-.08a.72.72,0,0,1,.06.48Z" transform="translate(-49.32 -32.6)"/><path class="cls-23" d="M100.61,150.92a.49.49,0,0,1-.4.39l-1.48.16a.47.47,0,0,1-.25-.05l-2-1a.62.62,0,0,1-.3-.71c.18-.74.51-2.1.68-2.76a.55.55,0,0,1,.1-.22.42.42,0,0,1,.33-.16l1.62-.06a.48.48,0,0,1,.24.06l1.86,1a.54.54,0,0,1,.22.23.69.69,0,0,1,.07.49Z" transform="translate(-49.32 -32.6)"/><path class="cls-24" d="M100.61,150.92a.49.49,0,0,1-.4.39l-1.48.16a.47.47,0,0,1-.25-.05l-.12-.06-1.9-1a.62.62,0,0,1-.3-.71c.18-.74.51-2.1.68-2.76a.55.55,0,0,1,.1-.22l2.26,1.18,2-.08a.69.69,0,0,1,.07.49Z" transform="translate(-49.32 -32.6)"/><path class="cls-25" d="M100.61,150.92a.49.49,0,0,1-.4.39l-1.48.16a.47.47,0,0,1-.25-.05l-.12-.06.84-3.47,2-.08a.69.69,0,0,1,.07.49Z" transform="translate(-49.32 -32.6)"/><path class="cls-26" d="M99.66,154.05a.48.48,0,0,1-.4.38l-1.48.16a.44.44,0,0,1-.25,0l-2-1a.65.65,0,0,1-.31-.72c.19-.74.52-2.1.68-2.76a.7.7,0,0,1,.11-.21.43.43,0,0,1,.33-.17l1.62-.06a.53.53,0,0,1,.24.06l1.86,1a.54.54,0,0,1,.22.23.62.62,0,0,1,.06.48Z" transform="translate(-49.32 -32.6)"/><path class="cls-27" d="M99.66,154.05a.48.48,0,0,1-.4.38l-1.48.16a.44.44,0,0,1-.25,0l-.12-.06-1.9-1a.65.65,0,0,1-.31-.72c.19-.74.52-2.1.68-2.76a.7.7,0,0,1,.11-.21L98.25,151l2-.07a.62.62,0,0,1,.06.48Z" transform="translate(-49.32 -32.6)"/><path class="cls-28" d="M99.66,154.05a.48.48,0,0,1-.4.38l-1.48.16a.44.44,0,0,1-.25,0l-.12-.06.84-3.48,2-.07a.62.62,0,0,1,.06.48Z" transform="translate(-49.32 -32.6)"/><path class="cls-29" d="M97.31,149.8a.49.49,0,0,1-.4.38l-1.48.16a.44.44,0,0,1-.25,0l-2-1a.64.64,0,0,1-.31-.72c.18-.74.52-2.1.68-2.76a.53.53,0,0,1,.11-.21.43.43,0,0,1,.33-.17l1.62-.06a.53.53,0,0,1,.24.06l1.86,1a.54.54,0,0,1,.22.23.66.66,0,0,1,.06.48Z" transform="translate(-49.32 -32.6)"/><path class="cls-30" d="M97.31,149.8a.49.49,0,0,1-.4.38l-1.48.16a.44.44,0,0,1-.25,0l-.12-.06-1.9-1a.64.64,0,0,1-.31-.72c.18-.74.52-2.1.68-2.76a.53.53,0,0,1,.11-.21l2.26,1.17,2-.07a.66.66,0,0,1,.06.48Z" transform="translate(-49.32 -32.6)"/><path class="cls-31" d="M97.31,149.8a.49.49,0,0,1-.4.38l-1.48.16a.44.44,0,0,1-.25,0l-.12-.06.84-3.48,2-.07a.66.66,0,0,1,.06.48Z" transform="translate(-49.32 -32.6)"/><path class="cls-32" d="M87.88,153.45l1.31-2.28a.75.75,0,0,0-.17-.95L86.9,148.7a.46.46,0,0,0-.69.19l-1.33,2.33a.75.75,0,0,0,.17,1l2.15,1.46A.46.46,0,0,0,87.88,153.45Z" transform="translate(-49.32 -32.6)"/><path class="cls-33" d="M92.64,152.32a.59.59,0,0,1-.26.54l-1.33.81a.45.45,0,0,1-.25.07l-2.18-.05a.53.53,0,0,1-.49-.53c0-.77-.12-2.19-.16-2.88a.69.69,0,0,1,0-.25.55.55,0,0,1,.26-.3l1.5-.78a.42.42,0,0,1,.24,0l2,.13a.45.45,0,0,1,.27.12.56.56,0,0,1,.2.42Z" transform="translate(-49.32 -32.6)"/><path class="cls-34" d="M92.64,152.32a.59.59,0,0,1-.26.54l-1.33.81a.45.45,0,0,1-.25.07h-.13l-2,0a.53.53,0,0,1-.49-.53c0-.77-.12-2.19-.16-2.88a.69.69,0,0,1,0-.25l2.45.09,1.85-1a.56.56,0,0,1,.2.42Z" transform="translate(-49.32 -32.6)"/><path class="cls-35" d="M92.64,152.32a.59.59,0,0,1-.26.54l-1.33.81a.45.45,0,0,1-.25.07h-.13l-.21-3.61,1.85-1a.56.56,0,0,1,.2.42Z" transform="translate(-49.32 -32.6)"/><path class="cls-36" d="M95.3,153.67a.49.49,0,0,1-.4.39l-1.47.16a.43.43,0,0,1-.25-.05l-2-1a.63.63,0,0,1-.3-.71c.18-.74.52-2.1.68-2.76a.74.74,0,0,1,.1-.22.44.44,0,0,1,.33-.16l1.63-.06a.53.53,0,0,1,.24.06l1.85,1a.57.57,0,0,1,.23.23.68.68,0,0,1,.06.49Z" transform="translate(-49.32 -32.6)"/><path class="cls-37" d="M95.3,153.67a.49.49,0,0,1-.4.39l-1.47.16a.43.43,0,0,1-.25-.05l-.12-.06-1.91-1a.63.63,0,0,1-.3-.71c.18-.74.52-2.1.68-2.76a.74.74,0,0,1,.1-.22l2.27,1.18,2-.08a.68.68,0,0,1,.06.49Z" transform="translate(-49.32 -32.6)"/><path class="cls-38" d="M95.3,153.67a.49.49,0,0,1-.4.39l-1.47.16a.43.43,0,0,1-.25-.05l-.12-.06.84-3.47,2-.08a.68.68,0,0,1,.06.49Z" transform="translate(-49.32 -32.6)"/><path class="cls-39" d="M104.33,151.19a.66.66,0,0,1-.23.59l-1.29,1a.49.49,0,0,1-.25.1l-2.26.27a.52.52,0,0,1-.55-.48c-.12-.79-.33-2.24-.43-2.95a.7.7,0,0,1,0-.25.61.61,0,0,1,.24-.36l1.48-1a.5.5,0,0,1,.24-.09l2.11-.15a.44.44,0,0,1,.29.08.58.58,0,0,1,.25.41Z" transform="translate(-49.32 -32.6)"/><path class="cls-40" d="M104.33,151.19a.66.66,0,0,1-.23.59l-1.29,1a.49.49,0,0,1-.25.1l-.14,0-2.12.25a.52.52,0,0,1-.55-.48c-.12-.79-.33-2.24-.43-2.95a.7.7,0,0,1,0-.25l2.54-.27,1.82-1.27a.58.58,0,0,1,.25.41Z" transform="translate(-49.32 -32.6)"/><path class="cls-41" d="M104.33,151.19a.66.66,0,0,1-.23.59l-1.29,1a.49.49,0,0,1-.25.1l-.14,0-.55-3.7,1.82-1.27a.58.58,0,0,1,.25.41Z" transform="translate(-49.32 -32.6)"/><path class="cls-42" d="M104.33,151.19l-.39-2.82a.58.58,0,0,0-.25-.41.44.44,0,0,0-.29-.08l-2.11.15a1,1,0,0,0-.08-.22.54.54,0,0,0-.22-.23l-1.86-1a.48.48,0,0,0-.24-.06l-1.11,0-.09-.07-1.86-1a.53.53,0,0,0-.24-.06l-1.62.06a.38.38,0,0,0-.23.08l-.92-.52a.46.46,0,0,0-.23,0L91,145a.49.49,0,0,0-.33.17.64.64,0,0,0-.1.22c-.07.26-.16.62-.25,1l-.33-.34a.41.41,0,0,0-.21-.14l-1.57-.53a.36.36,0,0,0-.35,0,.5.5,0,0,0-.15.17c-.26.48-.75,1.38-1.1,2l-.07,0a.49.49,0,0,0-.29-.06l-2,.28a.67.67,0,0,0-.23.1L82.58,149a.58.58,0,0,0-.21.35.7.7,0,0,0,0,.25c.13.67.39,2.06.54,2.81a.49.49,0,0,0,.55.43l2-.37,1.75,1.19a.46.46,0,0,0,.68-.19l.24-.42v.13a.53.53,0,0,0,.49.53l2.18.05a.45.45,0,0,0,.25-.07l.51-.31,1.62.81a.43.43,0,0,0,.25.05l1.47-.16a.49.49,0,0,0,.4-.39l.07-.25a.49.49,0,0,0,.14.11l2,1a.44.44,0,0,0,.25,0l1.48-.16a.48.48,0,0,0,.4-.38l.25-1a.48.48,0,0,0,.39.14l2.26-.27a.49.49,0,0,0,.25-.1l1.29-1A.66.66,0,0,0,104.33,151.19Zm-8.54-.77a.24.24,0,0,0-.11-.09h0l.16,0Z" transform="translate(-49.32 -32.6)"/></g><path d="M93.12,153.53c-6.57,0-13.56-1.77-13.56-5.06s7-5.07,13.56-5.07,13.57,1.78,13.57,5.07S99.7,153.53,93.12,153.53Zm0-9c-7.19,0-12.57,2.06-12.57,3.91s5.38,3.91,12.57,3.91,12.58-2.07,12.58-3.91S100.32,144.56,93.12,144.56Z" transform="translate(-49.32 -32.6)"/><path d="M93.12,156.53A32.83,32.83,0,0,1,81,154.44c-3.48-1.43-5.39-3.44-5.39-5.65s1.91-4.23,5.39-5.66A33,33,0,0,1,93.12,141a33.09,33.09,0,0,1,12.18,2.09c3.48,1.43,5.39,3.44,5.39,5.66s-1.91,4.22-5.39,5.65A32.88,32.88,0,0,1,93.12,156.53Zm0-13.95c-9.57,0-16.24,3.27-16.24,6.21s6.67,6.2,16.24,6.2,16.25-3.27,16.25-6.2S102.7,142.58,93.12,142.58Z" transform="translate(-49.32 -32.6)"/></g></g></svg>