<svg xmlns="http://www.w3.org/2000/svg" xmlns:xlink="http://www.w3.org/1999/xlink" viewBox="0 0 70 70"><defs><style>.cls-1{isolation:isolate;}.cls-2{fill:#fee475;}.cls-3{fill:#fed425;}.cls-4,.cls-7{fill:#fff;}.cls-4{mix-blend-mode:soft-light;}.cls-5{fill:url(#linear-gradient);}.cls-6{fill:#db6402;}</style><linearGradient id="linear-gradient" x1="320.16" y1="215.71" x2="320.16" y2="265.13" gradientTransform="translate(57.22 -61.52) rotate(12.05)" gradientUnits="userSpaceOnUse"><stop offset="0" stop-color="#fbe205"/><stop offset="1" stop-color="#e37d00"/></linearGradient></defs><g class="cls-1"><g id="Camada_1" data-name="Camada 1"><circle class="cls-2" cx="320.16" cy="240.42" r="35" transform="translate(-312.13 -164.5) rotate(-7.02)"/><circle class="cls-3" cx="320.16" cy="240.42" r="34.11" transform="translate(-313.06 -162.88) rotate(-7.29)"/><path class="cls-4" d="M344.34,216.37,296.11,264.6a34.1,34.1,0,0,0,11.41,7.5l44.32-44.31A34.29,34.29,0,0,0,344.34,216.37Z" transform="translate(-285.16 -205.42)"/><path class="cls-4" d="M353.4,248l-25.65,25.66A34.13,34.13,0,0,0,353.4,248Z" transform="translate(-285.16 -205.42)"/><path class="cls-4" d="M303.41,210.71l-13,13a33.83,33.83,0,0,0-3.3,8.13l24.38-24.38A34.32,34.32,0,0,0,303.41,210.71Z" transform="translate(-285.16 -205.42)"/><path class="cls-4" d="M339.85,212.58l-47.53,47.53c.55.78,1.14,1.54,1.75,2.27l48.05-48C341.39,213.72,340.63,213.14,339.85,212.58Z" transform="translate(-285.16 -205.42)"/><circle class="cls-4" cx="35.67" cy="35.63" r="24.71"/><circle class="cls-5" cx="320.16" cy="240.42" r="24.71" transform="translate(-328.28 -133.31) rotate(-12.05)"/><path class="cls-6" d="M296.79,241.76a24.71,24.71,0,0,1,41.5-18.13,24.71,24.71,0,1,0-34.92,34.92A24.63,24.63,0,0,1,296.79,241.76Z" transform="translate(-285.16 -205.42)"/><path class="cls-4" d="M320.16,206.76a35,35,0,0,1,35,34.33c0-.22,0-.44,0-.67a35,35,0,0,0-70,0c0,.23,0,.45,0,.67A35,35,0,0,1,320.16,206.76Z" transform="translate(-285.16 -205.42)"/><path class="cls-7" d="M338.53,214.84c-.15.22.93,1.36,4.26,5.3,5.5,6.5,6.61,8.21,6.85,8s-1.59-4.91-5.07-8.74C341.9,216.48,338.78,214.5,338.53,214.84Z" transform="translate(-285.16 -205.42)"/><path class="cls-7" d="M295.77,258.51c.19-.18,1.23,1,4.8,4.67,5.89,6,7.43,7.26,7.26,7.53s-4.37-1.66-7.84-5.49C297.31,262.27,295.48,258.79,295.77,258.51Z" transform="translate(-285.16 -205.42)"/></g></g></svg>