<svg xmlns="http://www.w3.org/2000/svg" xmlns:xlink="http://www.w3.org/1999/xlink" viewBox="0 0 95.26 107"><defs><style>.cls-1{isolation:isolate;}.cls-2{fill:#fee475;}.cls-3{fill:#fed425;}.cls-4,.cls-7{fill:#fff;}.cls-4{mix-blend-mode:soft-light;}.cls-5{fill:url(#linear-gradient);}.cls-6{fill:#db6402;}</style><linearGradient id="linear-gradient" x1="47.63" y1="15.73" x2="47.63" y2="91.27" gradientUnits="userSpaceOnUse"><stop offset="0" stop-color="#fbe205"/><stop offset="1" stop-color="#e37d00"/></linearGradient></defs><g class="cls-1"><g id="Camada_1" data-name="Camada 1"><ellipse class="cls-2" cx="47.63" cy="53.5" rx="47.63" ry="53.5"/><ellipse class="cls-3" cx="47.63" cy="53.5" rx="46.41" ry="52.13"/><path class="cls-4" d="M131.28,49.74,65.65,123.47a46.44,46.44,0,0,0,15.53,11.45l60.3-67.73A53.25,53.25,0,0,0,131.28,49.74Z" transform="translate(-50.74 -33)"/><path class="cls-4" d="M143.61,98.11,108.7,137.32C126,132.89,139.67,117.58,143.61,98.11Z" transform="translate(-50.74 -33)"/><path class="cls-4" d="M75.58,41.09,58,60.9a55.13,55.13,0,0,0-4.49,12.42L86.63,36.05A43.64,43.64,0,0,0,75.58,41.09Z" transform="translate(-50.74 -33)"/><path class="cls-4" d="M125.17,44,60.49,116.6c.75,1.19,1.54,2.35,2.38,3.47l65.39-73.44C127.26,45.68,126.23,44.79,125.17,44Z" transform="translate(-50.74 -33)"/><ellipse class="cls-4" cx="48.54" cy="54.47" rx="33.63" ry="37.77"/><ellipse class="cls-5" cx="47.63" cy="53.5" rx="33.63" ry="37.77"/><path class="cls-6" d="M66.57,88.55c0-20.86,15.05-37.77,33.63-37.77A31.61,31.61,0,0,1,123,60.84c-6.14-7.45-14.92-12.11-24.67-12.11-18.57,0-33.63,16.91-33.63,37.77a39.93,39.93,0,0,0,10.79,27.71A40.26,40.26,0,0,1,66.57,88.55Z" transform="translate(-50.74 -33)"/><path class="cls-4" d="M98.37,35.05c26,0,47.12,23.4,47.61,52.48,0-.35,0-.69,0-1C146,57,124.68,33,98.37,33S50.74,57,50.74,86.5c0,.34,0,.68,0,1C51.25,58.45,72.37,35.05,98.37,35.05Z" transform="translate(-50.74 -33)"/><path class="cls-7" d="M123.38,47.4c-.22.33,1.26,2.08,5.79,8.1,7.48,9.94,9,12.55,9.32,12.25.48-.45-2.16-7.5-6.9-13.35C128,49.9,123.71,46.88,123.38,47.4Z" transform="translate(-50.74 -33)"/><path class="cls-7" d="M65.19,114.15c.25-.28,1.67,1.55,6.53,7.15,8,9.23,10.1,11.08,9.88,11.5-.34.63-5.95-2.54-10.68-8.39C67.28,119.9,64.79,114.58,65.19,114.15Z" transform="translate(-50.74 -33)"/></g></g></svg>