<svg id="Camada_1" data-name="Camada 1" xmlns="http://www.w3.org/2000/svg" viewBox="0 0 168.75 82.49"><defs><style>.cls-1{fill:#1e90ff;}.cls-2{fill:#fff;opacity:0.22;}.cls-2,.cls-4{isolation:isolate;}.cls-3{fill:#f9e4af;}.cls-4{fill:#777589;opacity:0.23;}</style></defs><path class="cls-1" d="M164.2,4.79l4.55,4.57-4.55,4.56,4.55,4.57-4.55,4.57,4.55,4.57-4.55,4.59,4.55,4.54-4.55,4.57,4.55,4.57-4.55,4.57L168.75,55,164.2,59.6l4.55,4.62-4.55,4.57,4.55,4.57-4.55,4.56,4.55,4.57-9.82-1.41V.32l9.82-.1Z"/><polygon class="cls-1" points="3.63 4.79 0 9.36 3.63 13.93 0 18.49 3.63 23.06 0 27.63 3.63 32.2 0 36.77 3.63 41.33 0 45.9 3.63 50.47 0 55.04 3.63 59.6 0 64.17 3.63 68.74 0 73.31 3.63 77.88 0 82.44 7.84 82.44 7.84 0.22 0 0.22 3.63 4.79"/><path class="cls-1" d="M84,11.35C67.27,11,22.64,10,18.84,9,14.16,7.78,7.37.22,7.37.22V82.44s6.79-7.56,11.47-8.79c3.8-1,48.43-2,65.18-2.34,16.75.35,61.38,1.34,65.18,2.34,4.68,1.23,11.46,8.79,11.46,8.79V.22S153.88,7.78,149.2,9C145.4,10,100.75,11,84,11.35Z"/><path class="cls-2" d="M15.54,62.74A6.17,6.17,0,0,0,16,65.32a3.08,3.08,0,0,0,1.32,1.28A13.78,13.78,0,0,0,23.68,68a274.83,274.83,0,0,0,32.85-.35c1.91-.14,4.39-1,4.48-3.72a3.76,3.76,0,0,0-1.93-3.43,5.75,5.75,0,0,0-3.33-.27Q39.4,62.08,23,62.79a3.94,3.94,0,0,1-2.72-.57c-1.49-1.16-1.79-3.93-1.93-6.32q-.49-8.7-1-17.42c-.58-.87-1.72-.3-2.11.76-1,2.71.37,7.67.21,10.8C15.23,54.29,15.54,58.48,15.54,62.74Z"/><ellipse class="cls-3" cx="84.06" cy="41.18" rx="30.32" ry="28.83"/><path class="cls-2" d="M67.65,66.22l11.1.25a25,25,0,0,0,5.53-.28A5,5,0,0,0,87,64.88a4.39,4.39,0,0,0,1.14-3.49,3.5,3.5,0,0,0-1.8-2.64,5.44,5.44,0,0,0-2.7-.42A109.9,109.9,0,0,0,69.17,60c-1.34.22-3.78.64-4.43,2.66C63.89,65.29,66.33,66.14,67.65,66.22Z"/><path class="cls-4" d="M7.75.3c.37,1.54-.28,19.89-.28,19.89S16,22.06,18.83,22.57c5.49,1,11-.52,16.51-1.42,11.87-2,23.87-1,35.82-.75A315.59,315.59,0,0,0,131.07,16c5.48-.93,12.28-1.16,15.09,5.48,1.21,2.86,1.31,6.35,1.38,9.67l.84,42.14a6.91,6.91,0,0,1,.91.15c4.68,1.23,11.46,8.79,11.46,8.79V0S154,7.56,149.28,8.79c-3.8,1-48.43,2-65.17,2.34-16.75-.35-61.36-1.34-65.18-2.34C14.8,7.71,9.05,1.72,7.75.3Z"/></svg>